<svg width="75" height="23" fill="none" xmlns="http://www.w3.org/2000/svg"><path d="M29.06 18.92v-.54c.44-.393.883-.787 1.33-1.18.447-.4.89-.793 1.33-1.18a35.041 35.041 0 002.68-2.61c.747-.813 1.317-1.597 1.71-2.35.393-.76.59-1.52.59-2.28 0-1.04-.28-1.823-.84-2.35-.56-.527-1.407-.79-2.54-.79a6.64 6.64 0 00-1.01.08 7.398 7.398 0 00-2.12.66 7.57 7.57 0 00-1.07.61L29 6.28c.293-.18.61-.347.95-.5.34-.16.697-.297 1.07-.41.38-.113.763-.203 1.15-.27.387-.067.77-.1 1.15-.1.847 0 1.567.153 2.16.46.6.307 1.057.743 1.37 1.31.313.56.47 1.223.47 1.99 0 .793-.197 1.587-.59 2.38-.387.787-.957 1.607-1.71 2.46-.747.847-1.66 1.753-2.74 2.72l-2.42 2.16-.16-.16h7.96v.6h-8.6zm16.28.18c-.867 0-1.627-.17-2.28-.51a4.584 4.584 0 01-1.62-1.46c-.427-.633-.747-1.38-.96-2.24a11.913 11.913 0 01-.32-2.85c0-1.427.2-2.667.6-3.72.406-1.053.993-1.87 1.76-2.45.766-.58 1.693-.87 2.78-.87.833 0 1.566.167 2.2.5.633.333 1.166.81 1.6 1.43.44.62.77 1.363.99 2.23.22.86.33 1.82.33 2.88 0 1.453-.204 2.71-.61 3.77-.4 1.053-.98 1.867-1.74 2.44-.754.567-1.664.85-2.73.85zm-.04-.64c1.066 0 1.926-.28 2.58-.84.66-.567 1.14-1.333 1.44-2.3.306-.967.46-2.06.46-3.28 0-1.3-.16-2.427-.48-3.38-.32-.96-.814-1.703-1.48-2.23-.66-.527-1.5-.79-2.52-.79-1.047 0-1.904.28-2.57.84-.66.553-1.147 1.313-1.46 2.28-.314.96-.47 2.053-.47 3.28 0 1.24.153 2.343.46 3.31.306.967.79 1.727 1.45 2.28.66.553 1.523.83 2.59.83zm7.47.46v-.54c.44-.393.884-.787 1.33-1.18.448-.4.89-.793 1.33-1.18a35.041 35.041 0 002.68-2.61c.748-.813 1.318-1.597 1.71-2.35.394-.76.59-1.52.59-2.28 0-1.04-.28-1.823-.84-2.35-.56-.527-1.406-.79-2.54-.79-.326 0-.662.027-1.01.08a7.398 7.398 0 00-2.12.66 7.56 7.56 0 00-1.07.61l-.12-.71c.294-.18.61-.347.95-.5.34-.16.698-.297 1.07-.41a9.92 9.92 0 011.15-.27c.388-.067.77-.1 1.15-.1.848 0 1.568.153 2.16.46.6.307 1.058.743 1.37 1.31.314.56.47 1.223.47 1.99 0 .793-.196 1.587-.59 2.38-.386.787-.956 1.607-1.71 2.46-.746.847-1.66 1.753-2.74 2.72l-2.42 2.16-.16-.16h7.96v.6h-8.6zm16.28.18c-.866 0-1.626-.17-2.28-.51a4.584 4.584 0 01-1.62-1.46c-.426-.633-.746-1.38-.96-2.24a11.918 11.918 0 01-.32-2.85c0-1.427.2-2.667.6-3.72.407-1.053.994-1.87 1.76-2.45.767-.58 1.694-.87 2.78-.87.834 0 1.567.167 2.2.5.634.333 1.167.81 1.6 1.43.44.62.77 1.363.99 2.23.22.86.33 1.82.33 2.88 0 1.453-.203 2.71-.61 3.77-.4 1.053-.98 1.867-1.74 2.44-.753.567-1.663.85-2.73.85zm-.04-.64c1.067 0 1.927-.28 2.58-.84.66-.567 1.14-1.333 1.44-2.3.307-.967.46-2.06.46-3.28 0-1.3-.16-2.427-.48-3.38-.32-.96-.813-1.703-1.48-2.23-.66-.527-1.5-.79-2.52-.79-1.046 0-1.903.28-2.57.84-.66.553-1.146 1.313-1.46 2.28-.313.96-.47 2.053-.47 3.28 0 1.24.154 2.343.46 3.31.307.967.79 1.727 1.45 2.28.66.553 1.524.83 2.59.83zM12.637 17c-.874 0-1.66-.14-2.36-.42A5.228 5.228 0 018.5 15.404a5.23 5.23 0 01-1.113-1.76A5.951 5.951 0 017 11.484c0-1.084.237-2.038.71-2.862a5.062 5.062 0 011.935-1.926c.816-.465 1.74-.697 2.77-.697a7.12 7.12 0 012.085.307c.31.09.592.188.845.292.258.1.476.2.655.3l-.079.525a7.841 7.841 0 00-1.2-.532 6.465 6.465 0 00-1.176-.3 6.858 6.858 0 00-1.145-.097c-.953 0-1.797.207-2.534.621a4.443 4.443 0 00-1.721 1.746c-.416.75-.624 1.629-.624 2.638 0 .694.108 1.344.324 1.948.216.605.537 1.137.963 1.596.431.455.963.812 1.595 1.072.636.26 1.37.39 2.202.39.284 0 .566-.015.845-.046.284-.035.563-.084.837-.15.273-.07.54-.16.797-.27.258-.114.505-.249.742-.404l.095.525a4.456 4.456 0 01-.726.382 5.9 5.9 0 01-.813.262 6.843 6.843 0 01-.86.143c-.296.035-.59.052-.885.052z" fill="#000"/><circle cx="11.5" cy="11.5" r="11.35" stroke="#000" stroke-width=".3"/></svg>