<svg width="32" height="32" fill="none" xmlns="http://www.w3.org/2000/svg"><path fill-rule="evenodd" clip-rule="evenodd" d="M22.148.578c-2.856-.133-9.93-.127-12.787 0-2.512.118-4.727.724-6.513 2.51C.176 5.76.2 9.261.236 14.195a252.888 252.888 0 01.002 3.483c-.028 5.1-.047 8.565 2.61 11.222 2.675 2.675 6.216 2.649 11.094 2.612.584-.004 1.188-.008 1.811-.008h.085c5.915 0 7.97 0 10.074-.815 2.875-1.116 5.046-3.686 5.258-8.302.134-2.857.126-9.929 0-12.787-.256-5.449-3.18-8.753-9.022-9.022zM17.14 28.71a579.03 579.03 0 00-2.312-.002c-5.821.004-8.26.006-10.064-1.802-1.876-1.867-1.845-4.707-1.8-8.83a173.506 173.506 0 00.005-3.926c-.057-6.184-.097-10.5 6.449-10.835l.074-.003c1.589-.056 2.121-.075 6.206-.075l.058.039c.59 0 1.17-.005 1.737-.01 6.044-.056 10.59-.097 10.887 6.458.074 1.636.09 2.128.09 6.269l.001 1.08c.006 5.613.008 8.033-1.803 9.852-1.802 1.802-4.247 1.797-9.528 1.785zM15.754 8.03a7.963 7.963 0 00-7.964 7.964 7.963 7.963 0 007.964 7.964 7.963 7.963 0 007.964-7.964 7.963 7.963 0 00-7.964-7.964zm0 13.133a5.168 5.168 0 01-5.17-5.169 5.168 5.168 0 015.17-5.17 5.169 5.169 0 015.17 5.17 5.167 5.167 0 01-5.17 5.17zm10.14-13.447a1.861 1.861 0 11-3.723 0 1.861 1.861 0 013.723 0z" fill="#000"/></svg>